<?xml version="1.0" encoding="UTF-8"?>
<svg width="560px" height="687px" viewBox="0 0 560 687" version="1.1" xmlns="http://www.w3.org/2000/svg" xmlns:xlink="http://www.w3.org/1999/xlink">
    <!-- Generator: Sketch 41 (35326) - http://www.bohemiancoding.com/sketch -->
    <title>logo/adventure</title>
    <desc>Created with Sketch.</desc>
    <defs>
    </defs>
    <g id="Symbols" stroke="none" stroke-width="1" fill="none" fill-rule="evenodd">
        <g id="logo/adventure">
            <g>
                <path d="M161,652.5 L161,493.992609 C161,484.608433 153.388841,477 144,477 C134.609095,477 127,484.60785 127,493.992609 L127,669.007391 C127,673.845491 129.023058,678.211596 132.269773,681.306415 C135.362679,684.508773 139.702239,686.5 144.507198,686.5 L173.492802,686.5 C182.885052,686.5 190.5,678.888841 190.5,669.5 C190.5,660.109095 182.885618,652.5 173.492802,652.5 L161,652.5 Z" id="leg-left" fill="#68ADC4"></path>
                <path d="M398,652.5 L398,493.992609 C398,484.608433 390.388841,477 381,477 C371.609095,477 364,484.60785 364,493.992609 L364,669.007391 C364,673.845491 366.023058,678.211596 369.269773,681.306415 C372.362679,684.508773 376.702239,686.5 381.507198,686.5 L410.492802,686.5 C419.885052,686.5 427.5,678.888841 427.5,669.5 C427.5,660.109095 419.885618,652.5 410.492802,652.5 L398,652.5 Z" id="leg-right" fill="#68ADC4"></path>
                <rect id="shadow-leg-left" fill="#000000" opacity="0.135926178" x="127" y="505" width="34" height="46"></rect>
                <rect id="shadow-leg-right" fill="#000000" opacity="0.135926178" x="364" y="505" width="34" height="46"></rect>
                <circle id="head-shadow" fill="#5995A9" cx="280" cy="280" r="280"></circle>
                <ellipse id="head" fill="#60D1F6" cx="292" cy="280" rx="268" ry="280"></ellipse>
                <rect id="hand" fill="#68ADC4" x="57" y="319" width="34" height="209" rx="17"></rect>
            </g>
            <g id="mouth" transform="translate(258.000000, 287.000000)">
                <mask id="mask-2" fill="white">
                    <circle cx="56.6433858" cy="56.6433858" r="56.6433858"></circle>
                </mask>
                <g id="mouth-mask"></g>
                <path d="M113.286772,58.359852 C113.286772,54.5756553 110.209307,51.4939871 106.413061,51.4939871 L6.87371032,51.4939871 C3.07416371,51.4939871 0,54.5679395 0,58.359852 L0,123.585569 L113.286772,123.585569 L113.286772,58.359852 Z" id="mouth-bg" fill="#000000" mask="url(#mask-2)"></path>
                <path d="M56.6433858,88.9033971 C60.1471033,86.9421934 64.1922935,85.8233118 68.5005538,85.8233118 C81.8595614,85.8233118 92.6891767,96.58124 92.6891767,109.851817 C92.6891767,123.122394 81.8595614,133.880322 68.5005538,133.880322 C64.1922935,133.880322 60.1471033,132.76144 56.6433858,130.800237 C53.1396682,132.76144 49.0944781,133.880322 44.7862177,133.880322 C31.4272102,133.880322 20.5975948,123.122394 20.5975948,109.851817 C20.5975948,96.58124 31.4272102,85.8233118 44.7862177,85.8233118 C49.0944781,85.8233118 53.1396682,86.9421934 56.6433858,88.9033971 Z" id="tongue" fill="#F04747" mask="url(#mask-2)"></path>
            </g>
            <ellipse id="eye-left" fill="#000000" cx="214.5" cy="233.291484" rx="31.5" ry="31.2914842"></ellipse>
            <path d="M403,263.589588 C410.637451,263.589588 417.629821,260.845951 423.032808,256.296731 C429.741663,250.647991 434,242.215395 434,232.794794 C434,224.033326 430.316704,216.126443 424.404398,210.518805 C418.839915,205.241067 411.300976,202 403,202 C392.184011,202 382.661771,207.502527 377.115315,215.843297 C373.882184,220.705285 372,226.531691 372,232.794794 C372,239.855745 374.392265,246.361652 378.415578,251.556335 C384.083094,258.873924 392.987176,263.589588 403,263.589588 Z" id="eye-right" fill="#000000"></path>
        </g>
    </g>
</svg>
